<?xml version="1.0" encoding="UTF-8"?>
<svg version="1.1" xmlns="http://www.w3.org/2000/svg" width="454" height="265">
<path d="M0 0 C0.89420654 -0.0014502 1.78841309 -0.00290039 2.7097168 -0.00439453 C11.6905013 0.14377301 20.05640702 1.86838885 28.4375 5.0625 C29.12279785 5.32305176 29.8080957 5.58360352 30.51416016 5.85205078 C40.76074664 9.90313853 49.09221822 16.37092705 57.5 23.375 C58.11488281 23.85453125 58.72976563 24.3340625 59.36328125 24.828125 C64.03108573 28.56236858 67.60875015 33.00333842 71.32421875 37.66796875 C73.09567104 39.87194799 74.90942866 41.9742149 76.8125 44.0625 C85.38307644 53.79820089 92.72879961 64.55982757 99.85595703 75.37158203 C130.37021998 123.43467513 130.37021998 123.43467513 178.42578125 149.875 C188.72503876 151.5501016 196.95847701 149.12345546 206.5 145.375 C205.97272117 150.10263561 203.78328877 153.45411957 201.1875 157.3125 C200.79626953 157.90740234 200.40503906 158.50230469 200.00195312 159.11523438 C199.2224963 160.29799225 198.43724371 161.47695277 197.64599609 162.65185547 C196.52921132 164.33107723 195.46105578 166.04232236 194.39453125 167.75390625 C192.5 170.375 192.5 170.375 189.5 171.375 C188.83096612 172.7071471 188.16480642 174.04073816 187.5 175.375 C180.81623086 182.63371702 173.59618492 187.64038749 164.5 191.375 C163.32050781 191.88353516 163.32050781 191.88353516 162.1171875 192.40234375 C150.30746706 196.7459189 134.85738327 195.56732691 123.49902344 190.47851562 C114.33414459 186.13399066 106.07406601 181.17054703 98.5 174.375 C97.32824219 173.36373047 97.32824219 173.36373047 96.1328125 172.33203125 C86.28213578 163.69301924 76.95896522 154.51111621 68.80078125 144.25 C55.0430899 125.56461706 55.0430899 125.56461706 37.5 111.375 C37.83 110.715 38.16 110.055 38.5 109.375 C37.98308594 109.11847656 37.46617187 108.86195312 36.93359375 108.59765625 C35.02391427 107.63821857 33.12179879 106.66372333 31.22265625 105.68359375 C30.00267605 105.05975523 28.78262215 104.43606084 27.5625 103.8125 C26.95470703 103.49603516 26.34691406 103.17957031 25.72070312 102.85351562 C17.51007675 98.68177342 8.4514403 98.07435987 -0.42578125 100.61328125 C-9.65015315 104.00076246 -16.29059352 108.76095448 -22.625 116.1875 C-24.48057209 118.35233411 -26.39155975 120.45566231 -28.3125 122.5625 C-35.95121067 131.16517799 -42.6387521 140.54558106 -49.4375 149.8125 C-93.7897342 210.19257425 -93.7897342 210.19257425 -124.84375 219.04296875 C-136.14104512 220.45513064 -147.35686221 220.26085654 -158.06640625 216.25 C-160.53949148 215.20582748 -160.53949148 215.20582748 -163.5 215.375 C-163.5 214.715 -163.5 214.055 -163.5 213.375 C-165.14940656 212.09394332 -165.14940656 212.09394332 -167.3125 210.8125 C-182.65525827 200.90922519 -182.65525827 200.90922519 -184.5 195.375 C-182.92025391 195.60896484 -182.92025391 195.60896484 -181.30859375 195.84765625 C-159.2581066 198.91494546 -141.52504784 195.43062715 -123.5 182.375 C-120.08852482 179.794466 -116.77710378 177.1231464 -113.5 174.375 C-112.93925781 173.93671875 -112.37851563 173.4984375 -111.80078125 173.046875 C-108.20900248 170.21870274 -105.35589123 166.99882265 -102.41015625 163.53515625 C-100.40580785 161.26848004 -98.2942285 159.17136736 -96.125 157.0625 C-91.16218263 152.14989664 -86.84047566 146.83693827 -82.5 141.375 C-81.52821022 140.1698737 -80.55550919 138.9654818 -79.58203125 137.76171875 C-74.18221332 131.07052764 -68.91160898 124.30845475 -63.77734375 117.41015625 C-57.35687248 108.85319883 -50.80135246 100.4812548 -43.546875 92.609375 C-41.64259848 90.53066094 -39.81919485 88.40299207 -38 86.25 C-26.73205196 73.43496527 -12.84242395 64.55037018 4.4453125 63.375 C21.51039175 63.375 35.70412181 69.16424855 48.5 80.375 C48.5 81.035 48.5 81.695 48.5 82.375 C49.07363281 82.62378906 49.64726562 82.87257813 50.23828125 83.12890625 C57.98481456 87.39685811 63.72195017 95.90241096 69.15136719 102.69677734 C84.22017825 121.81178433 84.22017825 121.81178433 100.75 139.625 C101.6575 140.5325 102.565 141.44 103.5 142.375 C103.5 143.035 103.5 143.695 103.5 144.375 C104.10070312 144.643125 104.70140625 144.91125 105.3203125 145.1875 C107.53505856 146.3941 108.71259871 147.50592179 110.375 149.375 C118.20335758 157.42221489 128.20540509 163.97955498 138.5 168.375 C139.44875 168.7875 140.3975 169.2 141.375 169.625 C147.15440982 171.01205836 153.78836245 172.27887918 159.5 170.375 C158.72398437 170.13007813 157.94796875 169.88515625 157.1484375 169.6328125 C144.37704394 165.21311783 134.54269589 157.61068283 124.72265625 148.4453125 C122.71873266 146.57874044 120.66247085 144.81883926 118.5625 143.0625 C105.6202968 131.73157511 95.45033128 117.46333237 85.27734375 103.703125 C83.55913621 101.34549175 83.55913621 101.34549175 81.5 99.375 C80.64546901 98.13939438 79.81574014 96.88655161 79 95.625 C66.38723589 75.48130548 66.38723589 75.48130548 49.5 59.375 C49.83 58.715 50.16 58.055 50.5 57.375 C49.91476562 57.11203125 49.32953125 56.8490625 48.7265625 56.578125 C46.40024319 55.32109632 44.79269508 53.93660982 42.875 52.125 C31.01953129 41.56485102 16.27514051 35.76814192 0.29296875 36.52734375 C-10.54333026 38.01857756 -20.23275292 42.25144323 -28.5 49.375 C-29.25539062 49.99890625 -30.01078125 50.6228125 -30.7890625 51.265625 C-43.11828347 61.83352868 -52.46926172 74.83813892 -61.80712891 88.00439453 C-64.68423026 92.03333226 -67.62205805 96.01716633 -70.5625 100 C-71.14668701 100.79132324 -71.73087402 101.58264648 -72.33276367 102.39794922 C-78.01632016 110.08630289 -83.71425924 117.76312242 -89.5 125.375 C-89.9650293 125.98714355 -90.43005859 126.59928711 -90.90917969 127.22998047 C-96.61976495 134.71288524 -102.57133851 141.83372708 -109.01171875 148.69921875 C-111.09661085 150.94121418 -113.09110206 153.2217535 -115.0625 155.5625 C-125.65201839 167.61864183 -140.39304119 179.19161876 -156.5 182.375 C-158.49933669 182.42650516 -160.50103977 182.43948259 -162.5 182.375 C-162.83 183.035 -163.16 183.695 -163.5 184.375 C-178.46786125 183.00499084 -191.82195146 179.59739863 -201.984375 167.62646484 C-211.95372103 155.20569187 -211.95372103 155.20569187 -212.5 149.375 C-212.17 150.035 -211.84 150.695 -211.5 151.375 C-197.68394843 156.15747939 -182.09787219 153.48685201 -168.98046875 147.8671875 C-150.31096069 138.34418813 -135.03315243 121.62489173 -122.68212891 104.96289062 C-121.5915194 103.49793313 -120.47461689 102.05264802 -119.35546875 100.609375 C-114.40809341 94.18421223 -109.85532204 87.52699851 -105.3125 80.8125 C-95.09901616 65.73478032 -84.54704569 51.04699604 -72.5 37.375 C-71.33017578 36.02148438 -71.33017578 36.02148438 -70.13671875 34.640625 C-60.06734974 23.16258779 -47.34155825 11.23161975 -32.5 6.375 C-31.84 6.375 -31.18 6.375 -30.5 6.375 C-30.17 5.715 -29.84 5.055 -29.5 4.375 C-19.8474768 1.2075852 -10.13226959 0.00173216 0 0 Z " fill="#00A9FE" transform="translate(232.5,16.625)"/>
<path d="M0 0 C2.60582729 2.26344985 5.11696442 4.61606844 7.60400391 7.00878906 C10.93153365 10.19481891 14.40047734 13.18815487 17.90478516 16.17675781 C19.45166016 17.73535156 19.45166016 17.73535156 19.45166016 19.73535156 C20.00853516 19.96222656 20.56541016 20.18910156 21.13916016 20.42285156 C25.01970942 22.62532547 27.81905635 26.07537547 30.88916016 29.27832031 C46.55347153 45.44408068 65.70146524 59.58010957 88.92431641 60.93847656 C97.93882492 61.05618505 105.70235676 60.00019435 114.45166016 57.73535156 C112.88674069 62.43010997 109.22903144 64.68705693 105.45166016 67.73535156 C104.72849609 68.32960938 104.00533203 68.92386719 103.26025391 69.53613281 C89.43098039 80.08943629 74.33768331 81.89011644 57.45166016 82.73535156 C57.45166016 82.07535156 57.45166016 81.41535156 57.45166016 80.73535156 C56.27603516 80.69410156 55.10041016 80.65285156 53.88916016 80.61035156 C29.65496016 77.89642696 9.10093178 57.49173261 -7.18505859 41.07910156 C-19.45952788 28.90607417 -33.83618288 17.45811455 -51.54833984 15.73535156 C-52.63501953 15.61160156 -52.63501953 15.61160156 -53.74365234 15.48535156 C-67.67019287 14.66312039 -82.14146398 22.02794717 -92.54833984 30.73535156 C-92.54833984 26.59227731 -90.33975389 24.52061507 -87.86083984 21.42285156 C-87.42578125 20.86662109 -86.99072266 20.31039062 -86.54248047 19.73730469 C-85.22392929 18.05932622 -83.88745414 16.39694445 -82.54833984 14.73535156 C-81.86650635 13.86644287 -81.86650635 13.86644287 -81.17089844 12.97998047 C-80.00916228 11.52727697 -78.78347101 10.12618921 -77.54833984 8.73535156 C-76.88833984 8.73535156 -76.22833984 8.73535156 -75.54833984 8.73535156 C-75.35111328 8.1875 -75.15388672 7.63964844 -74.95068359 7.07519531 C-72.95847905 3.75115487 -70.13264394 1.63804872 -67.11083984 -0.70214844 C-66.48193848 -1.1893335 -65.85303711 -1.67651855 -65.20507812 -2.1784668 C-45.02779248 -17.40221603 -19.60216816 -16.01060092 0 0 Z " fill="#00A9FE" transform="translate(280.54833984375,161.2646484375)"/>
<path d="M0 0 C2.60582729 2.26344985 5.11696442 4.61606844 7.60400391 7.00878906 C10.93153365 10.19481891 14.40047734 13.18815487 17.90478516 16.17675781 C19.45166016 17.73535156 19.45166016 17.73535156 19.45166016 19.73535156 C20.77166016 20.39535156 22.09166016 21.05535156 23.45166016 21.73535156 C23.12166016 22.72535156 22.79166016 23.71535156 22.45166016 24.73535156 C21.81228516 24.09597656 21.17291016 23.45660156 20.51416016 22.79785156 C20.06169922 22.34667969 19.60923828 21.89550781 19.14306641 21.43066406 C17.85417459 20.13879559 16.57142759 18.84079333 15.29150391 17.54003906 C12.08337382 14.29441831 8.96333962 11.14260664 5.38916016 8.29785156 C4.74978516 7.78222656 4.11041016 7.26660156 3.45166016 6.73535156 C3.45166016 6.07535156 3.45166016 5.41535156 3.45166016 4.73535156 C2.87029297 4.46207031 2.28892578 4.18878906 1.68994141 3.90722656 C-0.50672933 2.75713717 -2.36421936 1.45032754 -4.36083984 -0.01464844 C-16.20292684 -7.91584419 -29.40970382 -11.86330541 -43.67333984 -9.70214844 C-58.87695871 -5.93862967 -73.86772313 5.78245641 -82.54833984 18.73535156 C-82.54833984 19.39535156 -82.54833984 20.05535156 -82.54833984 20.73535156 C-81.88833984 20.73535156 -81.22833984 20.73535156 -80.54833984 20.73535156 C-80.54833984 20.07535156 -80.54833984 19.41535156 -80.54833984 18.73535156 C-77.08333984 18.24035156 -77.08333984 18.24035156 -73.54833984 17.73535156 C-73.54833984 17.07535156 -73.54833984 16.41535156 -73.54833984 15.73535156 C-64.63323347 13.09383856 -55.75438171 13.55659347 -46.54833984 13.73535156 C-46.54833984 14.06535156 -46.54833984 14.39535156 -46.54833984 14.73535156 C-47.39654297 14.76113281 -48.24474609 14.78691406 -49.11865234 14.81347656 C-65.3130405 15.59650192 -79.93988576 20.18589273 -92.54833984 30.73535156 C-92.54833984 26.59227731 -90.33975389 24.52061507 -87.86083984 21.42285156 C-87.42578125 20.86662109 -86.99072266 20.31039062 -86.54248047 19.73730469 C-85.22392929 18.05932622 -83.88745414 16.39694445 -82.54833984 14.73535156 C-81.86650635 13.86644287 -81.86650635 13.86644287 -81.17089844 12.97998047 C-80.00916228 11.52727697 -78.78347101 10.12618921 -77.54833984 8.73535156 C-76.88833984 8.73535156 -76.22833984 8.73535156 -75.54833984 8.73535156 C-75.35111328 8.1875 -75.15388672 7.63964844 -74.95068359 7.07519531 C-72.95847905 3.75115487 -70.13264394 1.63804872 -67.11083984 -0.70214844 C-66.48193848 -1.1893335 -65.85303711 -1.67651855 -65.20507812 -2.1784668 C-45.02779248 -17.40221603 -19.60216816 -16.01060092 0 0 Z " fill="#0396F3" transform="translate(280.54833984375,161.2646484375)"/>
<path d="M0 0 C4.89754227 2.25530163 8.82168021 5.64026075 13 9 C13.60199219 9.4640625 14.20398438 9.928125 14.82421875 10.40625 C19.50271325 14.15777007 23.09720321 18.61384167 26.82421875 23.29296875 C28.59567104 25.49694799 30.40942866 27.5992149 32.3125 29.6875 C40.88307644 39.42320089 48.22879961 50.18482757 55.35595703 60.99658203 C85.77893691 108.9239304 85.77893691 108.9239304 133.62890625 135.44140625 C139.06179769 136.34164203 144.50300067 136.73909496 150 137 C150 137.33 150 137.66 150 138 C129.59987654 138.76104088 129.59987654 138.76104088 120 134 C119.15308594 133.62617188 118.30617188 133.25234375 117.43359375 132.8671875 C111.27242351 130.02646473 106.18510612 126.34192063 101 122 C100.38253906 121.505 99.76507813 121.01 99.12890625 120.5 C94.55723819 116.75306493 90.78703019 112.52446406 87 108 C85.90751953 106.72189453 85.90751953 106.72189453 84.79296875 105.41796875 C79.74715724 99.45918326 74.89186372 93.37072264 70.125 87.1875 C69.57763184 86.48246338 69.03026367 85.77742676 68.46630859 85.05102539 C65.72605686 81.46791176 63.31678865 77.9127612 61.14013672 73.94995117 C58.52934271 69.48476664 55.46384751 65.29741708 52.5 61.0625 C51.78875977 60.04486572 51.07751953 59.02723145 50.34472656 57.97875977 C29.52455506 27.05795239 29.52455506 27.05795239 1.58203125 3.12109375 C0.79892578 2.56615234 0.79892578 2.56615234 0 2 C0 1.34 0 0.68 0 0 Z " fill="#0695EE" transform="translate(277,31)"/>
<path d="M0 0 C0.99 0.495 0.99 0.495 2 1 C1.00033203 1.94746094 1.00033203 1.94746094 -0.01953125 2.9140625 C-7.43142057 10.10825996 -13.82061291 17.73414456 -20 26 C-20.54027832 26.72251953 -21.08055664 27.44503906 -21.63720703 28.18945312 C-28.09569753 36.85485573 -34.44050044 45.60079373 -40.75 54.375 C-46.02317602 61.70253724 -51.44162975 68.8863465 -57 76 C-57.89259046 77.16225126 -58.78449826 78.32502705 -59.67578125 79.48828125 C-64.99785426 86.39734089 -70.54550246 92.9632582 -76.51171875 99.32421875 C-78.59661085 101.56621418 -80.59110206 103.8467535 -82.5625 106.1875 C-88.93270926 113.43996829 -95.98429442 119.23360112 -104.125 124.375 C-104.78169678 124.79185059 -105.43839355 125.20870117 -106.11499023 125.63818359 C-112.34746574 129.45595421 -118.49753711 132.56268472 -126 132 C-123.00127921 130.0008528 -120.45283909 129.05031755 -117.0625 127.875 C-104.66120575 123.14545984 -95.3872238 115.08070221 -86 106 C-85.14535156 105.19691406 -84.29070312 104.39382812 -83.41015625 103.56640625 C-77.0166085 97.4152679 -71.64276957 90.67459751 -66.27880859 83.63867188 C-64.9686758 81.95986101 -63.61280396 80.32948747 -62.23828125 78.703125 C-60.02390093 76.23612379 -60.02390093 76.23612379 -59 74 C-58.34 74 -57.68 74 -57 74 C-56.62875 72.9171875 -56.62875 72.9171875 -56.25 71.8125 C-54.87274399 68.71367397 -53.14048536 66.62678525 -51 64 C-49.59288063 62.1125282 -48.19705396 60.21658641 -46.8125 58.3125 C-46.11769531 57.35988281 -45.42289062 56.40726563 -44.70703125 55.42578125 C-43.00661412 53.13739723 -43.00661412 53.13739723 -42 51 C-41.34 51 -40.68 51 -40 51 C-39.67708984 49.99646484 -39.67708984 49.99646484 -39.34765625 48.97265625 C-37.5574715 45.02387191 -35.07760844 41.85766834 -32.4375 38.4375 C-31.34615001 37.00666611 -30.25500586 35.5756752 -29.1640625 34.14453125 C-28.62555664 33.44150879 -28.08705078 32.73848633 -27.53222656 32.01416016 C-26.17797955 30.23395974 -24.84426144 28.44177184 -23.5234375 26.63671875 C-19.28979494 20.86968975 -14.86012325 15.4533914 -10.0078125 10.1953125 C-8.31112973 8.34018464 -6.70273425 6.45563466 -5.125 4.5 C-3 2 -3 2 0 0 Z " fill="#0392F1" transform="translate(200,66)"/>
<path d="M0 0 C8.56512791 2.26024209 16.32061064 6.17609893 23 12 C23.99 12.7425 24.98 13.485 26 14.25 C26.66 14.8275 27.32 15.405 28 16 C28 16.66 28 17.32 28 18 C28.5775 18.268125 29.155 18.53625 29.75 18.8125 C33.09782948 20.57941 35.43290831 22.04531623 37.39453125 25.34765625 C38.94948281 27.91654216 40.59210981 29.92479374 42.625 32.125 C45.79021548 35.62432156 48.86606173 39.17750845 51.875 42.8125 C52.61492187 43.70582031 53.35484375 44.59914062 54.1171875 45.51953125 C55.72674678 47.64000873 56.92675444 49.5767245 58 52 C58.66 52 59.32 52 60 52 C61.26411152 53.47479678 62.46140193 55.0071727 63.625 56.5625 C66.91858405 60.81520468 70.3381278 64.27050224 74.53125 67.625 C75.0159375 68.07875 75.500625 68.5325 76 69 C76 69.66 76 70.32 76 71 C76.5465625 71.23332031 77.093125 71.46664062 77.65625 71.70703125 C80.63608856 73.35090885 82.9423992 75.44272403 85.5 77.6875 C94.72391316 85.53975366 104.32312672 90.66670816 116 94 C116 94.33 116 94.66 116 95 C109.81209482 95.51903792 106.04813046 93.99502283 100.6875 91 C99.56492798 90.38705078 99.56492798 90.38705078 98.41967773 89.76171875 C92.42168559 86.4066345 87.119625 82.59339177 82 78 C80.82824219 76.98873047 80.82824219 76.98873047 79.6328125 75.95703125 C69.78213578 67.31801924 60.45896522 58.13611621 52.30078125 47.875 C38.5430899 29.18961706 38.5430899 29.18961706 21 15 C21.33 14.34 21.66 13.68 22 13 C21.48308594 12.74347656 20.96617187 12.48695312 20.43359375 12.22265625 C18.52391427 11.26321857 16.62179879 10.28872333 14.72265625 9.30859375 C13.50267605 8.68475523 12.28262215 8.06106084 11.0625 7.4375 C10.45470703 7.12103516 9.84691406 6.80457031 9.22070312 6.47851562 C3.29391477 3.46717009 -1.73056274 2.86809403 -8.3125 2.4375 C-9.56675781 2.35371094 -10.82101563 2.26992187 -12.11328125 2.18359375 C-13.54220703 2.09271484 -13.54220703 2.09271484 -15 2 C-10.21315597 -1.19122935 -5.59668468 -0.70577661 0 0 Z " fill="#0294F3" transform="translate(249,113)"/>
<path d="M0 0 C2.49361571 1.20381448 4.68143083 2.45428722 7 4 C7 4.66 7 5.32 7 6 C7.56847656 6.2371875 8.13695312 6.474375 8.72265625 6.71875 C11.49888137 8.28067425 13.25783628 10.17698571 15.4375 12.5 C30.59362721 27.90022296 51.16696794 41.91731804 73.34765625 42.24194336 C88.89903614 42.28705548 102.78447857 39.65669619 115 29 C115.495 27.515 115.495 27.515 116 26 C114.35 25.67 112.7 25.34 111 25 C111 24.67 111 24.34 111 24 C115.62 23.01 120.24 22.02 125 21 C123.43508053 25.69475841 119.77737128 27.95170537 116 31 C115.27683594 31.59425781 114.55367188 32.18851563 113.80859375 32.80078125 C99.97932023 43.35408473 84.88602316 45.15476488 68 46 C68 45.34 68 44.68 68 44 C66.824375 43.95875 65.64875 43.9175 64.4375 43.875 C39.06184507 41.03324684 16.61826705 18.69245161 0 1 C0 0.67 0 0.34 0 0 Z " fill="#0895EC" transform="translate(270,198)"/>
<path d="M0 0 C-3.39979157 2.26652771 -6.0912579 2.82889807 -10.0625 3.75 C-15.99917049 5.2146603 -20.81740323 7.21160215 -25.94921875 10.6328125 C-27.90804181 11.93869454 -29.87514014 12.99273009 -32 14 C-32 14.66 -32 15.32 -32 16 C-33.50390625 17.48046875 -33.50390625 17.48046875 -35.5625 19.1875 C-42.6578539 24.85095856 -42.6578539 24.85095856 -48 32 C-48.66 32 -49.32 32 -50 32 C-50.25910156 32.57105469 -50.51820313 33.14210937 -50.78515625 33.73046875 C-52.10942744 36.20442875 -53.64443365 38.15411036 -55.4375 40.3125 C-59.07214689 44.78231392 -62.53284433 49.35455627 -65.9375 54 C-66.42210693 54.65911377 -66.90671387 55.31822754 -67.40600586 55.99731445 C-69.90296928 59.3730291 -69.90296928 59.3730291 -72 63 C-72.66 63 -73.32 63 -74 63 C-74.33644531 63.78117187 -74.33644531 63.78117187 -74.6796875 64.578125 C-76.49424109 67.90659609 -78.78914175 70.77292576 -81.125 73.75 C-81.59292969 74.35199219 -82.06085938 74.95398438 -82.54296875 75.57421875 C-83.69225007 77.05186616 -84.84571235 78.52626005 -86 80 C-86.33 79.01 -86.66 78.02 -87 77 C-85.28567095 74.55571812 -83.54924742 72.33211787 -81.625 70.0625 C-80.50241181 68.70175234 -79.38133147 67.33975941 -78.26171875 65.9765625 C-77.70403809 65.30141602 -77.14635742 64.62626953 -76.57177734 63.93066406 C-74.44874212 61.32287243 -72.43741612 58.64048317 -70.4375 55.9375 C-63.33040667 46.3885482 -56.11961891 36.99416094 -48.046875 28.234375 C-46.14259848 26.15566094 -44.31919485 24.02799207 -42.5 21.875 C-31.52469801 9.39279156 -17.24269376 -0.95792743 0 0 Z " fill="#0394F3" transform="translate(237,81)"/>
<path d="M0 0 C1.02996094 0.144375 2.05992188 0.28875 3.12109375 0.4375 C13.4744503 1.81239242 23.56308848 2.23512441 34 2 C30.6816923 3.98960773 28.20040301 4.2361745 24.359375 4.1953125 C23.28945312 4.18886719 22.21953125 4.18242187 21.1171875 4.17578125 C20.00601563 4.15902344 18.89484375 4.14226562 17.75 4.125 C16.62335938 4.11597656 15.49671875 4.10695312 14.3359375 4.09765625 C11.55707635 4.07410658 8.7786461 4.0412168 6 4 C7.10304298 4.9663177 8.20910077 5.92919467 9.31640625 6.890625 C10.23981812 7.6954834 10.23981812 7.6954834 11.18188477 8.51660156 C13.10557625 10.16010676 13.10557625 10.16010676 15.9375 11.75 C16.618125 12.1625 17.29875 12.575 18 13 C18 13.66 18 14.32 18 15 C18.763125 15.2475 19.52625 15.495 20.3125 15.75 C22.40942463 16.46082191 24.50018444 17.19261288 26.56640625 17.98828125 C32.15098107 20.12424519 37.02838025 21.61473421 43 22 C43.66 22.0515625 44.32 22.103125 45 22.15625 C56.51908961 22.66444513 66.55736368 19.25007351 76.35546875 13.5234375 C79 12 79 12 82 11 C82 10.34 82 9.68 82 9 C82.66 9 83.32 9 84 9 C82.76329649 12.8389338 80.45665923 14.18281194 77.0012207 16.04492188 C76.01061646 16.54862305 76.01061646 16.54862305 75 17.0625 C74.31574951 17.41248047 73.63149902 17.76246094 72.92651367 18.12304688 C59.26578031 24.96388093 44.2200192 26.656825 29.4375 22 C28.44621094 21.62875 27.45492187 21.2575 26.43359375 20.875 C23.96050852 19.83082748 23.96050852 19.83082748 21 20 C21 19.34 21 18.68 21 18 C19.35059344 16.71894332 19.35059344 16.71894332 17.1875 15.4375 C1.84474173 5.53422519 1.84474173 5.53422519 0 0 Z " fill="#0996ED" transform="translate(48,212)"/>
<path d="M0 0 C3.54850155 3.40506476 6.5296758 6.91390846 9.4375 10.875 C21.72398606 27.16861193 37.06475682 43.99344664 55 54 C56.08410156 54.66257813 57.16820312 55.32515625 58.28515625 56.0078125 C62.1628133 58.22256539 66.16548583 59.50709011 70.4375 60.75 C71.16904297 60.97042969 71.90058594 61.19085938 72.65429688 61.41796875 C74.43390085 61.95301308 76.2166368 62.4776223 78 63 C78 63.33 78 63.66 78 64 C64.4006524 65.33326937 53.08430994 57.15529786 43 49 C40.34882315 46.74484957 37.76698079 44.44501541 35.22265625 42.0703125 C33.21873266 40.20374044 31.16247085 38.44383926 29.0625 36.6875 C19.11531993 27.97872388 10.98762565 17.47026605 3 7 C2.1028125 5.90171875 2.1028125 5.90171875 1.1875 4.78125 C0 3 0 3 0 0 Z " fill="#0294F2" transform="translate(322,123)"/>
<path d="M0 0 C0.495 0.99 0.495 0.99 1 2 C-13.36054104 18.53078358 -13.36054104 18.53078358 -20 25 C-20.50015625 25.54527344 -21.0003125 26.09054688 -21.515625 26.65234375 C-31.51038007 37.27720294 -46.47898779 49.81246073 -61 53 C-62.34361148 52.71086842 -63.68032413 52.38385477 -65 52 C-64.29617187 51.74347656 -63.59234375 51.48695313 -62.8671875 51.22265625 C-50.10638679 46.27493065 -39.4410911 38.75579439 -29 30 C-28.43925781 29.56171875 -27.87851563 29.1234375 -27.30078125 28.671875 C-23.71284909 25.84673157 -20.86256579 22.62998896 -17.91796875 19.171875 C-15.86532473 16.84749602 -13.70935328 14.67559406 -11.5 12.5 C-7.45075794 8.50632215 -3.67582897 4.33771457 0 0 Z " fill="#0494F3" transform="translate(148,161)"/>
<path d="M0 0 C6.89832896 1.32231248 13.93859277 6.27601991 19 11 C19 11.66 19 12.32 19 13 C19.57363281 13.24878906 20.14726562 13.49757813 20.73828125 13.75390625 C28.47965026 18.01901284 34.23212589 26.51810912 39.64160156 33.32080078 C41.23238047 35.28725969 42.86093007 37.21934322 44.4921875 39.15234375 C45.09256836 39.87091553 45.69294922 40.5894873 46.31152344 41.32983398 C47.50781141 42.76141769 48.71146117 44.18688587 49.92285156 45.60571289 C50.73834473 46.58979126 50.73834473 46.58979126 51.5703125 47.59375 C52.06289551 48.17833984 52.55547852 48.76292969 53.06298828 49.36523438 C53.37220215 49.90470703 53.68141602 50.44417969 54 51 C53.67 51.99 53.34 52.98 53 54 C47.7379825 47.8134411 42.48522779 41.62566637 37.375 35.3125 C27.54894453 22.11557114 27.54894453 22.11557114 15 12 C15 11.34 15 10.68 15 10 C14.43539063 9.72027344 13.87078125 9.44054687 13.2890625 9.15234375 C10.96783112 7.98380577 8.66476492 6.7916213 6.375 5.5625 C5.59898437 5.15128906 4.82296875 4.74007812 4.0234375 4.31640625 C2 3 2 3 0 0 Z " fill="#0297F4" transform="translate(262,86)"/>
<path d="M0 0 C0 3 0 3 -1.328125 4.578125 C-7.09700588 9.59658235 -13.18908515 13.5285773 -20 17 C-21.00289062 17.51175781 -22.00578125 18.02351563 -23.0390625 18.55078125 C-34.28305234 23.40676226 -45.98016966 22.48144502 -58 22 C-57.34 24.31 -56.68 26.62 -56 29 C-59.25914951 25.91702073 -62.06553673 23.0838669 -64 19 C-63.505 17.515 -63.505 17.515 -63 16 C-63 16.66 -63 17.32 -63 18 C-45.83791846 22.33894612 -29.33494329 19.79727989 -14.0625 11.015625 C-9.0536638 7.71899301 -4.49378858 3.97146445 0 0 Z " fill="#0896F1" transform="translate(84,150)"/>
<path d="M0 0 C0.89420654 -0.0014502 1.78841309 -0.00290039 2.7097168 -0.00439453 C11.64139308 0.14296281 19.77693709 1.88993735 28.125 5 C29.33414063 5.44601563 30.54328125 5.89203125 31.7890625 6.3515625 C32.68367188 6.68929688 33.57828125 7.02703125 34.5 7.375 C34.5 8.035 34.5 8.695 34.5 9.375 C33.283125 8.941875 32.06625 8.50875 30.8125 8.0625 C29.04394611 7.49287375 27.27291216 6.93091314 25.5 6.375 C24.64921875 6.08882812 23.7984375 5.80265625 22.921875 5.5078125 C14.96337806 3.22463715 7.24205993 3.0868697 -1 3.0625 C-2.71981079 3.05440308 -2.71981079 3.05440308 -4.47436523 3.04614258 C-9.71444192 3.09063197 -13.66342829 3.23773031 -18.5 5.375 C-20.07604541 5.70377768 -21.66027942 5.9954369 -23.25 6.25 C-27.76153488 7.08747055 -31.57611231 8.55866924 -35.6875 10.5703125 C-37.5 11.375 -37.5 11.375 -39.5 11.375 C-39.5 10.715 -39.5 10.055 -39.5 9.375 C-38.86191406 9.18164062 -38.22382813 8.98828125 -37.56640625 8.7890625 C-36.74011719 8.52867188 -35.91382813 8.26828125 -35.0625 8 C-34.23878906 7.74476562 -33.41507813 7.48953125 -32.56640625 7.2265625 C-30.32201984 6.56617773 -30.32201984 6.56617773 -29.5 4.375 C-19.8474768 1.2075852 -10.13226959 0.00173216 0 0 Z " fill="#0998EF" transform="translate(232.5,16.625)"/>
<path d="M0 0 C0.495 1.485 0.495 1.485 1 3 C-5.625 6.875 -5.625 6.875 -9 8 C-9.33 8.99 -9.66 9.98 -10 11 C-11.33333333 11.33333333 -12.66666667 11.66666667 -14 12 C-14.33 12.99 -14.66 13.98 -15 15 C-15.78375 15.61875 -16.5675 16.2375 -17.375 16.875 C-20.07347431 18.80065002 -20.07347431 18.80065002 -21.375 21.375 C-22.91598409 23.86428199 -24.08144165 25.01105463 -26.3125 26.8125 C-30.2884282 30.09118818 -33.02158979 33.82603077 -36 38 C-37.49736033 39.98116449 -38.99754863 41.9601936 -40.5 43.9375 C-44.18549044 48.84525123 -47.67749816 53.84035008 -51 59 C-51.66 58.34 -52.32 57.68 -53 57 C-45.04384948 45.9831189 -36.98643833 35.19856257 -28 25 C-27.22011719 24.09765625 -26.44023437 23.1953125 -25.63671875 22.265625 C-17.96722289 13.52319448 -9.66416698 6.45622846 0 0 Z " fill="#0896EF" transform="translate(188,29)"/>
<path d="M0 0 C3.18340653 1.6399367 5.52567747 3.46703617 7.9375 6.0625 C19.78467609 18.24594965 34.95859994 26.57093313 51.875 28.125 C52.75414062 28.21136719 53.63328125 28.29773438 54.5390625 28.38671875 C56.69211108 28.59734307 58.84598249 28.79952708 61 29 C61 29.33 61 29.66 61 30 C39.10994513 31.04018212 24.55984757 24.37733059 8 10 C2.32987594 4.77242221 2.32987594 4.77242221 0 2 C0 1.34 0 0.68 0 0 Z " fill="#0293F2" transform="translate(335,160)"/>
<path d="M0 0 C3.6142408 1.30214299 6.3820996 2.87344459 9.4375 5.1875 C24.58297621 15.93517867 39.75248631 19.25885449 58 20 C56 22 56 22 53.85546875 22.265625 C34.48816576 22.15220009 19.49007096 16.34623032 4 5 C3.23171875 4.46890625 2.4634375 3.9378125 1.671875 3.390625 C1.12015625 2.93171875 0.5684375 2.4728125 0 2 C0 1.34 0 0.68 0 0 Z " fill="#0495F3" transform="translate(323,203)"/>
<path d="M0 0 C0.495 1.485 0.495 1.485 1 3 C0.04711914 4.74243164 0.04711914 4.74243164 -1.46484375 6.66015625 C-2.01358154 7.3663208 -2.56231934 8.07248535 -3.12768555 8.80004883 C-3.72492432 9.54665771 -4.32216309 10.2932666 -4.9375 11.0625 C-5.53925049 11.83037842 -6.14100098 12.59825684 -6.76098633 13.3894043 C-8.49771693 15.60074326 -10.24733753 17.80128178 -12 20 C-12.75796875 20.96421875 -13.5159375 21.9284375 -14.296875 22.921875 C-16.17694043 25.29914781 -18.08323135 27.65224194 -20 30 C-20.41942871 30.52029785 -20.83885742 31.0405957 -21.27099609 31.57666016 C-22.63275462 33.26461755 -24.00288436 34.94545569 -25.375 36.625 C-26.20773438 37.64851563 -27.04046875 38.67203125 -27.8984375 39.7265625 C-28.59195313 40.47679687 -29.28546875 41.22703125 -30 42 C-30.66 42 -31.32 42 -32 42 C-30.47650967 38.46679901 -28.3697049 36.04791612 -25.75 33.25 C-21.86401081 29.01414683 -18.35693494 24.6590188 -15 20 C-14.46117187 19.31035156 -13.92234375 18.62070313 -13.3671875 17.91015625 C-11.86956775 16.07754588 -11.86956775 16.07754588 -11.5 13.8125 C-11.335 13.214375 -11.17 12.61625 -11 12 C-10.01 11.67 -9.02 11.34 -8 11 C-5.87265067 8.4547046 -5.87265067 8.4547046 -3.8125 5.4375 C-3.09707031 4.42558594 -2.38164062 3.41367188 -1.64453125 2.37109375 C-1.10183594 1.58863281 -0.55914062 0.80617187 0 0 Z " fill="#0493F1" transform="translate(184,161)"/>
<path d="M0 0 C0.66 0 1.32 0 2 0 C-1.10016853 7.48374017 -9.04280539 11.84636845 -16.1875 14.875 C-23.50325631 17.73725213 -29.98462636 19.33146963 -37.8125 19.25 C-38.9562207 19.26160156 -38.9562207 19.26160156 -40.12304688 19.2734375 C-45.74645075 19.25354925 -45.74645075 19.25354925 -48 17 C-47.43192627 16.99589111 -46.86385254 16.99178223 -46.27856445 16.98754883 C-30.07524907 16.78281675 -15.81011538 15.14610338 -3.41015625 3.5078125 C-2.27198783 2.33995273 -1.13577257 1.17018992 0 0 Z " fill="#0696EF" transform="translate(416,192)"/>
<path d="M0 0 C0.495 0.99 0.495 0.99 1 2 C-0.09054688 1.96519531 -0.09054688 1.96519531 -1.203125 1.9296875 C-17.45411633 1.63800304 -30.81761644 5.31294541 -44 15 C-44 12 -44 12 -42.9140625 10.53515625 C-30.0058043 0.1822063 -15.73291404 -0.30549348 0 0 Z " fill="#0396F3" transform="translate(247,51)"/>
<path d="M0 0 C0.66 0.33 1.32 0.66 2 1 C-7.48672177 15.41174329 -17.38140873 29.39916608 -28 43 C-28.495 41.515 -28.495 41.515 -29 40 C-27.55439582 37.88910702 -26.08520638 36.00744295 -24.4375 34.0625 C-19.53014305 28.06056831 -14.9865633 21.86605018 -10.5625 15.5 C-9.97202881 14.65187744 -9.38155762 13.80375488 -8.77319336 12.92993164 C-5.80427632 8.64876262 -2.87197834 4.34677804 0 0 Z " fill="#0695EF" transform="translate(133,89)"/>
<path d="M0 0 C12.56084028 0.47399397 22.78754159 9.11717477 32 17 C32.66 17.99 33.32 18.98 34 20 C30.09552755 19.2694858 28.1850218 17.4371707 25.2421875 14.81640625 C17.71086893 8.71525097 9.14609761 4.13816442 0 1 C0 0.67 0 0.34 0 0 Z " fill="#0392F2" transform="translate(235,176)"/>
<path d="M0 0 C2.49220002 0.94940953 4.85842406 1.92126258 7.19140625 3.21875 C16.25114642 8.11429329 25.92080193 8.33858348 36 9 C35.01 9.33 34.02 9.66 33 10 C32.67 10.66 32.34 11.32 32 12 C9.64910903 9.95422173 9.64910903 9.95422173 1.75 2.1875 C1.1725 1.465625 0.595 0.74375 0 0 Z " fill="#0998EF" transform="translate(37,189)"/>
<path d="M0 0 C0.66 0 1.32 0 2 0 C3.35693359 1.64892578 3.35693359 1.64892578 4.8984375 3.9453125 C5.46046875 4.77546875 6.0225 5.605625 6.6015625 6.4609375 C7.18679688 7.34007813 7.77203125 8.21921875 8.375 9.125 C8.9525 9.9809375 9.53 10.836875 10.125 11.71875 C11.7572667 14.14106359 13.38047787 16.56915255 15 19 C15.43086914 19.64549805 15.86173828 20.29099609 16.30566406 20.95605469 C17.20469998 22.30342041 18.10253288 23.65158881 19 25 C18.67 25.66 18.34 26.32 18 27 C17.38125 26.21625 16.7625 25.4325 16.125 24.625 C14.10141339 22.03162353 14.10141339 22.03162353 12 20 C11.06053679 18.6615479 10.14703286 17.30475169 9.25 15.9375 C7.60790731 13.43795989 5.96226783 10.94485299 4.2734375 8.4765625 C3.45746094 7.28160156 3.45746094 7.28160156 2.625 6.0625 C2.12226563 5.33160156 1.61953125 4.60070312 1.1015625 3.84765625 C0 2 0 2 0 0 Z " fill="#0396F2" transform="translate(302,96)"/>
<path d="M0 0 C0.33 0.66 0.66 1.32 1 2 C9.4127776 5.1547916 19.17918876 4.18419327 28 4 C24.84685215 6.10209857 24.13896919 6.2434761 20.55078125 6.1953125 C19.27944336 6.18564453 19.27944336 6.18564453 17.98242188 6.17578125 C17.10134766 6.15902344 16.22027344 6.14226562 15.3125 6.125 C14.41982422 6.11597656 13.52714844 6.10695312 12.60742188 6.09765625 C10.40467686 6.07409748 8.20247412 6.04120329 6 6 C6.66 8.31 7.32 10.62 8 13 C4.72653393 9.90347804 2.02490044 7.04980088 0 3 C0 2.01 0 1.02 0 0 Z " fill="#099EF0" transform="translate(20,166)"/>
<path d="M0 0 C6.03240931 0.44463303 10.05997205 1.66281449 15.1875 4.8125 C15.77724609 5.15603516 16.36699219 5.49957031 16.97460938 5.85351562 C20.54969316 7.9731148 23.90577821 10.22044484 27 13 C27 13.66 27 14.32 27 15 C23.63102629 13.76003051 20.89876247 12.35613211 18 10.25 C12.37099457 6.38303519 6.24276066 3.72095596 0 1 C0 0.67 0 0.34 0 0 Z " fill="#0293F3" transform="translate(250,53)"/>
<path d="M0 0 C4.60388182 3.75827087 8.58816922 7.62663971 12.421875 12.16796875 C13.88104785 13.86190951 15.39822318 15.44164484 17 17 C16.67 17.99 16.34 18.98 16 20 C10.16210302 14.44157681 4.62887865 8.62323594 0 2 C0 1.34 0 0.68 0 0 Z " fill="#0298F5" transform="translate(317,140)"/>
<path d="M0 0 C0.99 0 1.98 0 3 0 C1.54643329 4.45103477 -0.91932948 7.63211002 -3.9375 11.125 C-4.60168945 11.91197266 -4.60168945 11.91197266 -5.27929688 12.71484375 C-7.42695591 15.24338419 -9.60249241 17.70535578 -12 20 C-11.39641629 16.4348322 -9.97748587 14.44823243 -7.6875 11.6875 C-4.67473769 7.94324397 -2.25424973 4.23798949 0 0 Z " fill="#0491F0" transform="translate(198,141)"/>
<path d="M0 0 C4.41019913 1.61040684 6.88133983 4.94983869 9.8125 8.4375 C10.5849707 9.31631836 10.5849707 9.31631836 11.37304688 10.21289062 C12.83203125 11.93359375 12.83203125 11.93359375 15 15 C14.67 15.99 14.34 16.98 14 18 C12.03652487 15.75431285 10.07916064 13.50376879 8.125 11.25 C7.56941406 10.61578125 7.01382812 9.9815625 6.44140625 9.328125 C5.90644531 8.709375 5.37148438 8.090625 4.8203125 7.453125 C4.32805176 6.88754883 3.83579102 6.32197266 3.32861328 5.73925781 C1.93422449 3.91389476 0.96096853 2.0814339 0 0 Z " fill="#0390F0" transform="translate(286,77)"/>
<path d="M0 0 C7.06331359 -0.35646629 13.56441083 -0.26269404 20 3 C20.33 3.66 20.66 4.32 21 5 C20.39414062 4.86722656 19.78828125 4.73445313 19.1640625 4.59765625 C13.74466635 3.45541429 8.46323259 2.68881327 2.93359375 2.34375 C2.29550781 2.2303125 1.65742188 2.116875 1 2 C0.67 1.34 0.34 0.68 0 0 Z " fill="#0293F4" transform="translate(240,81)"/>
<path d="M0 0 C0.66 0.33 1.32 0.66 2 1 C0.25420935 2.9414396 -1.49637493 4.87815784 -3.25 6.8125 C-3.74113281 7.35970703 -4.23226562 7.90691406 -4.73828125 8.47070312 C-7.31729955 11.30762325 -9.80629194 13.83284096 -13 16 C-13.66 15.67 -14.32 15.34 -15 15 C-10.05 10.05 -5.1 5.1 0 0 Z " fill="#099AF0" transform="translate(101,133)"/>
<path d="M0 0 C3.45201639 1.47721422 5.64961936 3.43794001 8.25 6.125 C8.95640625 6.84945312 9.6628125 7.57390625 10.390625 8.3203125 C11.18726563 9.15175781 11.18726563 9.15175781 12 10 C11.67 10.66 11.34 11.32 11 12 C9.72799029 10.89718873 8.45744147 9.79269231 7.1875 8.6875 C6.47980469 8.07261719 5.77210938 7.45773438 5.04296875 6.82421875 C1.3771204 3.55088953 1.3771204 3.55088953 0 2 C0 1.34 0 0.68 0 0 Z " fill="#0395F4" transform="translate(309,190)"/>
<path d="M0 0 C0 3 0 3 -2.40625 5.69921875 C-3.4299968 6.70302243 -4.4616054 7.69885649 -5.5 8.6875 C-6.02464844 9.19861328 -6.54929688 9.70972656 -7.08984375 10.23632812 C-8.38660904 11.49772708 -9.69246117 12.74977212 -11 14 C-11.33 13.01 -11.66 12.02 -12 11 C-11.01 10.67 -10.02 10.34 -9 10 C-9 9.34 -9 8.68 -9 8 C-7.28515625 6.30859375 -7.28515625 6.30859375 -5.0625 4.4375 C-4.33160156 3.81746094 -3.60070312 3.19742188 -2.84765625 2.55859375 C-1.93306641 1.78708984 -1.93306641 1.78708984 -1 1 C-0.67 0.67 -0.34 0.34 0 0 Z " fill="#0793EE" transform="translate(150,204)"/>
<path d="M0 0 C3.48872415 1.16290805 4.09976864 2.13967609 6.1875 5.0625 C6.71730469 5.79597656 7.24710938 6.52945313 7.79296875 7.28515625 C8.19128906 7.85105469 8.58960938 8.41695312 9 9 C4.18579475 8.16677217 2.81953925 5.8377062 0 2 C0 1.34 0 0.68 0 0 Z " fill="#058FEC" transform="translate(28,179)"/>
<path d="M0 0 C0.33 0.99 0.66 1.98 1 3 C0.01 3.99 -0.98 4.98 -2 6 C-2.33 5.34 -2.66 4.68 -3 4 C-4.98 4.33 -6.96 4.66 -9 5 C-6.3534665 2.3534665 -3.43778736 1.40058003 0 0 Z " fill="#0F91DD" transform="translate(438,162)"/>
<path d="M0 0 C0.99 0 1.98 0 3 0 C1.54744301 3.82946843 -0.42895561 5.12050295 -4 7 C-2.79618552 4.50638429 -1.54571278 2.31856917 0 0 Z " fill="#0C95EC" transform="translate(191,185)"/>
<path d="M0 0 C0.33 0.66 0.66 1.32 1 2 C3.34907875 2.68931344 3.34907875 2.68931344 6.0625 3.125 C6.98160156 3.29257813 7.90070312 3.46015625 8.84765625 3.6328125 C9.91306641 3.81457031 9.91306641 3.81457031 11 4 C11 4.33 11 4.66 11 5 C5.25 5.125 5.25 5.125 3 4 C2.67 4.66 2.34 5.32 2 6 C0 3 0 3 0 0 Z " fill="#15A0E4" transform="translate(20,166)"/>
<path d="M0 0 C4 1 4 1 4 1 Z " fill="#00C9FF" transform="translate(409,165)"/>
<path d="M0 0 C2 1 2 1 2 1 Z " fill="#00D4FF" transform="translate(381,212)"/>
<path d="" fill="#00BFFF" transform="translate(0,0)"/>
<path d="M0 0 C2 1 2 1 2 1 Z " fill="#00FFFF" transform="translate(45,168)"/>
<path d="M0 0 C2 1 2 1 2 1 Z " fill="#00FFFF" transform="translate(242,116)"/>
<path d="" fill="#00BFFF" transform="translate(0,0)"/>
<path d="" fill="#0094FF" transform="translate(0,0)"/>
<path d="M0 0 C2 1 2 1 2 1 Z " fill="#007FFF" transform="translate(261,60)"/>
<path d="" fill="#00FFFF" transform="translate(0,0)"/>
<path d="" fill="#00AAFF" transform="translate(0,0)"/>
<path d="" fill="#00FFFF" transform="translate(0,0)"/>
<path d="" fill="#00FFFF" transform="translate(0,0)"/>
<path d="" fill="#007FFF" transform="translate(0,0)"/>
<path d="" fill="#00FFFF" transform="translate(0,0)"/>
<path d="" fill="#007FFF" transform="translate(0,0)"/>
<path d="" fill="#007FFF" transform="translate(0,0)"/>
<path d="" fill="#007FFF" transform="translate(0,0)"/>
<path d="" fill="#00FFFF" transform="translate(0,0)"/>
<path d="" fill="#00FFFF" transform="translate(0,0)"/>
<path d="" fill="#00FFFF" transform="translate(0,0)"/>
<path d="" fill="#00AAFF" transform="translate(0,0)"/>
<path d="" fill="#007FFF" transform="translate(0,0)"/>
<path d="" fill="#00FFFF" transform="translate(0,0)"/>
<path d="" fill="#00FFFF" transform="translate(0,0)"/>
<path d="" fill="#00AAFF" transform="translate(0,0)"/>
<path d="" fill="#00FFFF" transform="translate(0,0)"/>
<path d="" fill="#00FFFF" transform="translate(0,0)"/>
<path d="" fill="#007FFF" transform="translate(0,0)"/>
<path d="" fill="#00AAFF" transform="translate(0,0)"/>
<path d="" fill="#00FFFF" transform="translate(0,0)"/>
<path d="" fill="#00BFFF" transform="translate(0,0)"/>
<path d="" fill="#00FFFF" transform="translate(0,0)"/>
<path d="" fill="#007FFF" transform="translate(0,0)"/>
<path d="" fill="#007FFF" transform="translate(0,0)"/>
<path d="" fill="#00FFFF" transform="translate(0,0)"/>
<path d="" fill="#00FFFF" transform="translate(0,0)"/>
<path d="" fill="#007FFF" transform="translate(0,0)"/>
<path d="" fill="#00FFFF" transform="translate(0,0)"/>
<path d="" fill="#00FFFF" transform="translate(0,0)"/>
<path d="" fill="#00FFFF" transform="translate(0,0)"/>
<path d="" fill="#00AAFF" transform="translate(0,0)"/>
<path d="" fill="#007FFF" transform="translate(0,0)"/>
<path d="" fill="#007FFF" transform="translate(0,0)"/>
<path d="" fill="#00FFFF" transform="translate(0,0)"/>
<path d="" fill="#00FFFF" transform="translate(0,0)"/>
<path d="" fill="#00BFFF" transform="translate(0,0)"/>
<path d="" fill="#007FFF" transform="translate(0,0)"/>
<path d="" fill="#007FFF" transform="translate(0,0)"/>
<path d="" fill="#007FFF" transform="translate(0,0)"/>
<path d="" fill="#00FFFF" transform="translate(0,0)"/>
<path d="" fill="#007FFF" transform="translate(0,0)"/>
<path d="" fill="#007FFF" transform="translate(0,0)"/>
<path d="" fill="#00FFFF" transform="translate(0,0)"/>
<path d="" fill="#00FFFF" transform="translate(0,0)"/>
<path d="" fill="#00FFFF" transform="translate(0,0)"/>
<path d="" fill="#00FFFF" transform="translate(0,0)"/>
<path d="" fill="#00FFFF" transform="translate(0,0)"/>
<path d="" fill="#00FFFF" transform="translate(0,0)"/>
<path d="" fill="#007FFF" transform="translate(0,0)"/>
<path d="" fill="#00FFFF" transform="translate(0,0)"/>
<path d="" fill="#007FFF" transform="translate(0,0)"/>
<path d="" fill="#00FFFF" transform="translate(0,0)"/>
<path d="" fill="#00FFFF" transform="translate(0,0)"/>
<path d="" fill="#00AAFF" transform="translate(0,0)"/>
<path d="" fill="#00FFFF" transform="translate(0,0)"/>
<path d="" fill="#00AAFF" transform="translate(0,0)"/>
<path d="" fill="#007FFF" transform="translate(0,0)"/>
<path d="" fill="#00FFFF" transform="translate(0,0)"/>
<path d="" fill="#007FFF" transform="translate(0,0)"/>
<path d="" fill="#007FFF" transform="translate(0,0)"/>
<path d="" fill="#00AAFF" transform="translate(0,0)"/>
<path d="" fill="#00FFFF" transform="translate(0,0)"/>
<path d="" fill="#00FFFF" transform="translate(0,0)"/>
<path d="" fill="#00FFFF" transform="translate(0,0)"/>
<path d="" fill="#00FFFF" transform="translate(0,0)"/>
<path d="" fill="#00FFFF" transform="translate(0,0)"/>
<path d="" fill="#00FFFF" transform="translate(0,0)"/>
<path d="" fill="#00FFFF" transform="translate(0,0)"/>
<path d="" fill="#00FFFF" transform="translate(0,0)"/>
<path d="" fill="#00FFFF" transform="translate(0,0)"/>
<path d="" fill="#00FFFF" transform="translate(0,0)"/>
<path d="" fill="#00FFFF" transform="translate(0,0)"/>
<path d="" fill="#007FFF" transform="translate(0,0)"/>
<path d="" fill="#00FFFF" transform="translate(0,0)"/>
<path d="" fill="#00AAFF" transform="translate(0,0)"/>
<path d="" fill="#00FFFF" transform="translate(0,0)"/>
<path d="" fill="#00FFFF" transform="translate(0,0)"/>
<path d="" fill="#00FFFF" transform="translate(0,0)"/>
<path d="" fill="#00FFFF" transform="translate(0,0)"/>
</svg>
